<?xml version="1.0" encoding="UTF-8"?>
<!-- Marlin — field marks: spear bill + sail dorsal -->
<svg xmlns="http://www.w3.org/2000/svg" viewBox="0 0 128 128" role="img" aria-label="TunaOS Marlin">
  <g fill="#3D7BF4">
    <!-- bill -->
    <path d="M24 64 L 1 51 C 9 57, 17 62, 26 68 Z"/>
    <!-- sail dorsal -->
    <path d="M40 52 C 44 30, 70 22, 94 32 C 82 37, 58 42, 48 54 Z"/>
    <!-- slim body -->
    <path d="M18 64 C 30 52, 56 46, 76 48 C 90 50, 100 56, 106 62 L 106 68 C 100 74, 90 79, 76 81 C 56 83, 30 76, 18 64 Z"/>
    <!-- tail -->
    <path d="M104 65 L 122 46 C 117 58.5, 117 71.5, 122 84 Z"/>
    <!-- pelvic streamer -->
    <path d="M44 76 C 50 86, 60 92, 70 93 C 62 87, 54 80, 50 74 Z"/>
  </g>
  <circle cx="33" cy="60" r="4" fill="#0B1B2B"/>
  <circle cx="34.4" cy="58.6" r="1.3" fill="#3D7BF4"/>
</svg>
